# xmcd
#
# Track frame offsets:
#	150
#	21193
#	41512
#	66389
#	92597
#	110084
#	131799
#	150438
#	166203
#	193854
#	217225
#	244923
#
# Disc length: 3492 seconds
#
# Revision: 1
# Processed by: cddbd v1.5.2PL0 Copyright (c) Steve Scherf et al.
# Submitted via: audiograbber 1.83.01
#
DISCID=ae0da20c
DTITLE=Уездные хроники - Уездные хроники
DYEAR=2003
DGENRE=Blues
TTITLE0=Ты крутой
TTITLE1=Акула
TTITLE2=Когда тебе уже нельзя
TTITLE3=Монета
TTITLE4=Весна
TTITLE5=Очки - тапочки
TTITLE6=Не горюй
TTITLE7=Полный вперёд
TTITLE8=Наш дом
TTITLE9=Шиншилла
TTITLE10=Заклинатель змей
TTITLE11=Нам хватит
EXTD=
EXTT0=
EXTT1=
EXTT2=
EXTT3=
EXTT4=
EXTT5=
EXTT6=
EXTT7=
EXTT8=
EXTT9=
EXTT10=
EXTT11=
PLAYORDER=
